<svg id="visual" viewBox="0 0 900 600" width="900" height="600" xmlns="http://www.w3.org/2000/svg" xmlns:xlink="http://www.w3.org/1999/xlink" version="1.1"><g stroke-width="1" stroke-linejoin="bevel"><path d="M492 334L439 424L495 367Z" fill="#0c2a3b" stroke="#0c2a3b"></path><path d="M492 334L389 294L439 424Z" fill="#061825" stroke="#061825"></path><path d="M499 197L407 201L389 294Z" fill="#081c29" stroke="#081c29"></path><path d="M269 413L378 508L439 424Z" fill="#0a2332" stroke="#0a2332"></path><path d="M439 424L586 497L495 367Z" fill="#0b2737" stroke="#0b2737"></path><path d="M265 290L269 413L389 294Z" fill="#0a2332" stroke="#0a2332"></path><path d="M389 294L269 413L439 424Z" fill="#00101c" stroke="#00101c"></path><path d="M598 233L499 197L492 334Z" fill="#0a2332" stroke="#0a2332"></path><path d="M492 334L499 197L389 294Z" fill="#081c29" stroke="#081c29"></path><path d="M297 188L265 290L389 294Z" fill="#061825" stroke="#061825"></path><path d="M378 508L475 531L439 424Z" fill="#081c29" stroke="#081c29"></path><path d="M635 432L613 270L495 367Z" fill="#0b2737" stroke="#0b2737"></path><path d="M495 367L613 270L492 334Z" fill="#041420" stroke="#041420"></path><path d="M613 270L598 233L492 334Z" fill="#0d3244" stroke="#0d3244"></path><path d="M475 531L586 497L439 424Z" fill="#0e3649" stroke="#0e3649"></path><path d="M321 96L297 188L407 201Z" fill="#0d3244" stroke="#0d3244"></path><path d="M407 201L297 188L389 294Z" fill="#091f2d" stroke="#091f2d"></path><path d="M177 307L225 437L269 413Z" fill="#0d2e40" stroke="#0d2e40"></path><path d="M269 413L261 527L378 508Z" fill="#091f2d" stroke="#091f2d"></path><path d="M586 497L635 432L495 367Z" fill="#081c29" stroke="#081c29"></path><path d="M536 112L423 119L499 197Z" fill="#0e3649" stroke="#0e3649"></path><path d="M499 197L423 119L407 201Z" fill="#00101c" stroke="#00101c"></path><path d="M225 437L261 527L269 413Z" fill="#081c29" stroke="#081c29"></path><path d="M378 508L427 600L475 531Z" fill="#0d3244" stroke="#0d3244"></path><path d="M290 600L427 600L378 508Z" fill="#00101c" stroke="#00101c"></path><path d="M475 531L528 600L586 497Z" fill="#091f2d" stroke="#091f2d"></path><path d="M711 510L669 422L635 432Z" fill="#0b2737" stroke="#0b2737"></path><path d="M635 432L669 422L613 270Z" fill="#0b2737" stroke="#0b2737"></path><path d="M232 172L177 307L265 290Z" fill="#0b2737" stroke="#0b2737"></path><path d="M265 290L177 307L269 413Z" fill="#0b2737" stroke="#0b2737"></path><path d="M427 600L528 600L475 531Z" fill="#091f2d" stroke="#091f2d"></path><path d="M586 497L711 510L635 432Z" fill="#0c2a3b" stroke="#0c2a3b"></path><path d="M613 270L679 271L598 233Z" fill="#091f2d" stroke="#091f2d"></path><path d="M598 233L536 112L499 197Z" fill="#061825" stroke="#061825"></path><path d="M669 422L679 271L613 270Z" fill="#0d2e40" stroke="#0d2e40"></path><path d="M590 67L536 112L598 233Z" fill="#0e3649" stroke="#0e3649"></path><path d="M321 96L232 172L297 188Z" fill="#041420" stroke="#041420"></path><path d="M297 188L232 172L265 290Z" fill="#0c2a3b" stroke="#0c2a3b"></path><path d="M225 437L229 539L261 527Z" fill="#00101c" stroke="#00101c"></path><path d="M261 527L290 600L378 508Z" fill="#091f2d" stroke="#091f2d"></path><path d="M90 496L229 539L225 437Z" fill="#091f2d" stroke="#091f2d"></path><path d="M229 539L290 600L261 527Z" fill="#061825" stroke="#061825"></path><path d="M423 119L321 96L407 201Z" fill="#0e3649" stroke="#0e3649"></path><path d="M380 0L321 96L423 119Z" fill="#041420" stroke="#041420"></path><path d="M137 268L137 399L177 307Z" fill="#0d2e40" stroke="#0d2e40"></path><path d="M177 307L137 399L225 437Z" fill="#081c29" stroke="#081c29"></path><path d="M528 600L598 600L586 497Z" fill="#0a2332" stroke="#0a2332"></path><path d="M765 213L694 218L679 271Z" fill="#0d3244" stroke="#0d3244"></path><path d="M679 271L694 218L598 233Z" fill="#0c2a3b" stroke="#0c2a3b"></path><path d="M232 172L137 268L177 307Z" fill="#0a2332" stroke="#0a2332"></path><path d="M598 600L711 510L586 497Z" fill="#0c2a3b" stroke="#0c2a3b"></path><path d="M669 422L788 376L679 271Z" fill="#0e3649" stroke="#0e3649"></path><path d="M686 98L590 67L598 233Z" fill="#0c2a3b" stroke="#0c2a3b"></path><path d="M538 0L380 0L423 119Z" fill="#0d3244" stroke="#0d3244"></path><path d="M90 496L174 600L229 539Z" fill="#0a2332" stroke="#0a2332"></path><path d="M229 539L174 600L290 600Z" fill="#00101c" stroke="#00101c"></path><path d="M167 82L88 205L232 172Z" fill="#0d2e40" stroke="#0d2e40"></path><path d="M232 172L88 205L137 268Z" fill="#0d2e40" stroke="#0d2e40"></path><path d="M538 0L423 119L536 112Z" fill="#0b2737" stroke="#0b2737"></path><path d="M777 498L788 376L669 422Z" fill="#0b2737" stroke="#0b2737"></path><path d="M0 392L90 496L137 399Z" fill="#091f2d" stroke="#091f2d"></path><path d="M137 399L90 496L225 437Z" fill="#0e3649" stroke="#0e3649"></path><path d="M694 218L686 98L598 233Z" fill="#0d2e40" stroke="#0d2e40"></path><path d="M765 213L686 98L694 218Z" fill="#0e3649" stroke="#0e3649"></path><path d="M838 287L765 213L679 271Z" fill="#0e3649" stroke="#0e3649"></path><path d="M167 82L232 172L321 96Z" fill="#0d2e40" stroke="#0d2e40"></path><path d="M137 268L0 392L137 399Z" fill="#091f2d" stroke="#091f2d"></path><path d="M587 0L538 0L590 67Z" fill="#0a2332" stroke="#0a2332"></path><path d="M590 67L538 0L536 112Z" fill="#0d3244" stroke="#0d3244"></path><path d="M730 600L777 498L711 510Z" fill="#0c2a3b" stroke="#0c2a3b"></path><path d="M711 510L777 498L669 422Z" fill="#0d3244" stroke="#0d3244"></path><path d="M228 0L167 82L321 96Z" fill="#061825" stroke="#061825"></path><path d="M380 0L287 0L321 96Z" fill="#091f2d" stroke="#091f2d"></path><path d="M598 600L730 600L711 510Z" fill="#00101c" stroke="#00101c"></path><path d="M686 98L587 0L590 67Z" fill="#0b2737" stroke="#0b2737"></path><path d="M287 0L228 0L321 96Z" fill="#081c29" stroke="#081c29"></path><path d="M900 322L838 287L788 376Z" fill="#0b2737" stroke="#0b2737"></path><path d="M788 376L838 287L679 271Z" fill="#0a2332" stroke="#0a2332"></path><path d="M774 0L729 0L686 98Z" fill="#081c29" stroke="#081c29"></path><path d="M0 271L0 392L137 268Z" fill="#0d3244" stroke="#0d3244"></path><path d="M90 496L60 600L174 600Z" fill="#081c29" stroke="#081c29"></path><path d="M0 206L0 271L88 205Z" fill="#091f2d" stroke="#091f2d"></path><path d="M88 205L0 271L137 268Z" fill="#0d3244" stroke="#0d3244"></path><path d="M86 80L88 205L167 82Z" fill="#091f2d" stroke="#091f2d"></path><path d="M73 0L86 80L167 82Z" fill="#0e3649" stroke="#0e3649"></path><path d="M0 524L60 600L90 496Z" fill="#041420" stroke="#041420"></path><path d="M730 600L807 600L777 498Z" fill="#00101c" stroke="#00101c"></path><path d="M900 426L900 322L788 376Z" fill="#0b2737" stroke="#0b2737"></path><path d="M0 109L0 206L88 205Z" fill="#0d2e40" stroke="#0d2e40"></path><path d="M0 392L0 524L90 496Z" fill="#0b2737" stroke="#0b2737"></path><path d="M774 0L686 98L830 60Z" fill="#00101c" stroke="#00101c"></path><path d="M686 98L729 0L587 0Z" fill="#061825" stroke="#061825"></path><path d="M900 426L788 376L777 498Z" fill="#061825" stroke="#061825"></path><path d="M830 60L686 98L765 213Z" fill="#0c2a3b" stroke="#0c2a3b"></path><path d="M900 516L900 426L777 498Z" fill="#0b2737" stroke="#0b2737"></path><path d="M0 524L0 600L60 600Z" fill="#0e3649" stroke="#0e3649"></path><path d="M86 80L0 109L88 205Z" fill="#0b2737" stroke="#0b2737"></path><path d="M0 0L0 109L86 80Z" fill="#0c2a3b" stroke="#0c2a3b"></path><path d="M830 60L765 213L900 191Z" fill="#00101c" stroke="#00101c"></path><path d="M807 600L900 516L777 498Z" fill="#081c29" stroke="#081c29"></path><path d="M900 191L765 213L838 287Z" fill="#0d3244" stroke="#0d3244"></path><path d="M900 322L900 191L838 287Z" fill="#0e3649" stroke="#0e3649"></path><path d="M228 0L73 0L167 82Z" fill="#061825" stroke="#061825"></path><path d="M807 600L900 600L900 516Z" fill="#0e3649" stroke="#0e3649"></path><path d="M900 191L900 83L830 60Z" fill="#0a2332" stroke="#0a2332"></path><path d="M830 60L900 0L774 0Z" fill="#0d2e40" stroke="#0d2e40"></path><path d="M73 0L0 0L86 80Z" fill="#00101c" stroke="#00101c"></path><path d="M900 83L900 0L830 60Z" fill="#0d2e40" stroke="#0d2e40"></path></g></svg>