<svg id="visual" viewBox="0 0 900 600" width="900" height="600" xmlns="http://www.w3.org/2000/svg" xmlns:xlink="http://www.w3.org/1999/xlink" version="1.1"><path d="M0 49L18.8 48C37.7 47 75.3 45 112.8 45C150.3 45 187.7 47 225.2 47C262.7 47 300.3 45 337.8 49C375.3 53 412.7 63 450.2 63C487.7 63 525.3 53 562.8 44C600.3 35 637.7 27 675.2 24C712.7 21 750.3 23 787.8 28C825.3 33 862.7 41 881.3 45L900 49L900 0L881.3 0C862.7 0 825.3 0 787.8 0C750.3 0 712.7 0 675.2 0C637.7 0 600.3 0 562.8 0C525.3 0 487.7 0 450.2 0C412.7 0 375.3 0 337.8 0C300.3 0 262.7 0 225.2 0C187.7 0 150.3 0 112.8 0C75.3 0 37.7 0 18.8 0L0 0Z" fill="#086173"></path><path d="M0 151L18.8 146C37.7 141 75.3 131 112.8 142C150.3 153 187.7 185 225.2 193C262.7 201 300.3 185 337.8 185C375.3 185 412.7 201 450.2 213C487.7 225 525.3 233 562.8 227C600.3 221 637.7 201 675.2 191C712.7 181 750.3 181 787.8 167C825.3 153 862.7 125 881.3 111L900 97L900 47L881.3 43C862.7 39 825.3 31 787.8 26C750.3 21 712.7 19 675.2 22C637.7 25 600.3 33 562.8 42C525.3 51 487.7 61 450.2 61C412.7 61 375.3 51 337.8 47C300.3 43 262.7 45 225.2 45C187.7 45 150.3 43 112.8 43C75.3 43 37.7 45 18.8 46L0 47Z" fill="#045466"></path><path d="M0 187L18.8 181C37.7 175 75.3 163 112.8 174C150.3 185 187.7 219 225.2 237C262.7 255 300.3 257 337.8 276C375.3 295 412.7 331 450.2 349C487.7 367 525.3 367 562.8 345C600.3 323 637.7 279 675.2 260C712.7 241 750.3 247 787.8 244C825.3 241 862.7 229 881.3 223L900 217L900 95L881.3 109C862.7 123 825.3 151 787.8 165C750.3 179 712.7 179 675.2 189C637.7 199 600.3 219 562.8 225C525.3 231 487.7 223 450.2 211C412.7 199 375.3 183 337.8 183C300.3 183 262.7 199 225.2 191C187.7 183 150.3 151 112.8 140C75.3 129 37.7 139 18.8 144L0 149Z" fill="#024759"></path><path d="M0 235L18.8 228C37.7 221 75.3 207 112.8 212C150.3 217 187.7 241 225.2 263C262.7 285 300.3 305 337.8 327C375.3 349 412.7 373 450.2 384C487.7 395 525.3 393 562.8 372C600.3 351 637.7 311 675.2 291C712.7 271 750.3 271 787.8 271C825.3 271 862.7 271 881.3 271L900 271L900 215L881.3 221C862.7 227 825.3 239 787.8 242C750.3 245 712.7 239 675.2 258C637.7 277 600.3 321 562.8 343C525.3 365 487.7 365 450.2 347C412.7 329 375.3 293 337.8 274C300.3 255 262.7 253 225.2 235C187.7 217 150.3 183 112.8 172C75.3 161 37.7 173 18.8 179L0 185Z" fill="#013b4c"></path><path d="M0 337L18.8 325C37.7 313 75.3 289 112.8 291C150.3 293 187.7 321 225.2 347C262.7 373 300.3 397 337.8 410C375.3 423 412.7 425 450.2 434C487.7 443 525.3 459 562.8 442C600.3 425 637.7 375 675.2 354C712.7 333 750.3 341 787.8 348C825.3 355 862.7 361 881.3 364L900 367L900 269L881.3 269C862.7 269 825.3 269 787.8 269C750.3 269 712.7 269 675.2 289C637.7 309 600.3 349 562.8 370C525.3 391 487.7 393 450.2 382C412.7 371 375.3 347 337.8 325C300.3 303 262.7 283 225.2 261C187.7 239 150.3 215 112.8 210C75.3 205 37.7 219 18.8 226L0 233Z" fill="#002f3f"></path><path d="M0 385L18.8 377C37.7 369 75.3 353 112.8 361C150.3 369 187.7 401 225.2 420C262.7 439 300.3 445 337.8 452C375.3 459 412.7 467 450.2 477C487.7 487 525.3 499 562.8 488C600.3 477 637.7 443 675.2 422C712.7 401 750.3 393 787.8 393C825.3 393 862.7 401 881.3 405L900 409L900 365L881.3 362C862.7 359 825.3 353 787.8 346C750.3 339 712.7 331 675.2 352C637.7 373 600.3 423 562.8 440C525.3 457 487.7 441 450.2 432C412.7 423 375.3 421 337.8 408C300.3 395 262.7 371 225.2 345C187.7 319 150.3 291 112.8 289C75.3 287 37.7 311 18.8 323L0 335Z" fill="#002333"></path><path d="M0 433L18.8 429C37.7 425 75.3 417 112.8 422C150.3 427 187.7 445 225.2 467C262.7 489 300.3 515 337.8 521C375.3 527 412.7 513 450.2 516C487.7 519 525.3 539 562.8 531C600.3 523 637.7 487 675.2 472C712.7 457 750.3 463 787.8 459C825.3 455 862.7 441 881.3 434L900 427L900 407L881.3 403C862.7 399 825.3 391 787.8 391C750.3 391 712.7 399 675.2 420C637.7 441 600.3 475 562.8 486C525.3 497 487.7 485 450.2 475C412.7 465 375.3 457 337.8 450C300.3 443 262.7 437 225.2 418C187.7 399 150.3 367 112.8 359C75.3 351 37.7 367 18.8 375L0 383Z" fill="#001826"></path><path d="M0 601L18.8 601C37.7 601 75.3 601 112.8 601C150.3 601 187.7 601 225.2 601C262.7 601 300.3 601 337.8 601C375.3 601 412.7 601 450.2 601C487.7 601 525.3 601 562.8 601C600.3 601 637.7 601 675.2 601C712.7 601 750.3 601 787.8 601C825.3 601 862.7 601 881.3 601L900 601L900 425L881.3 432C862.7 439 825.3 453 787.8 457C750.3 461 712.7 455 675.2 470C637.7 485 600.3 521 562.8 529C525.3 537 487.7 517 450.2 514C412.7 511 375.3 525 337.8 519C300.3 513 262.7 487 225.2 465C187.7 443 150.3 425 112.8 420C75.3 415 37.7 423 18.8 427L0 431Z" fill="#000000"></path></svg>